{"title":"solo_girl_6","uid":5075839,"size":17790407,"categoryP":"porn","categoryS":"movie_clips","magnet":"?xt=urn:btih:bf7d3f1524a731f3dedca0d08023b75ad3e5edda&amp;dn=solo_girl_6&amp;tr=udp%3A%2F%2Ftracker.openbittorrent.com%3A80&amp;tr=udp%3A%2F%2Fopen.demonii.com%3A1337&amp;tr=udp%3A%2F%2Ftracker.coppersurfer.tk%3A6969&amp;tr=udp%3A%2F%2Fexodus.desync.com%3A6969","seeders":0,"leechers":0,"uploader":"sandokan89","files":-1,"time":1251827329,"description":"------------------ solo_girl_6 --------------------------\n\nVideo\nID                               : 1\nFormat                           : VC-1 ----- Windows Media\nFormat profile                   : MP@LL\nCodec ID                         : WMV3\nCodec ID/Info                    : Windows Media Video 9\nCodec ID/Hint                    : WMV3\nDuration                         : 2mn 50s\nBit rate mode                    : Constant\nBit rate                         : 700 Kbps\nWidth                            : 320 pixels\nHeight                           : 240 pixels\nDisplay aspect ratio             : 4/3\nFrame rate                       : 29.970 fps\nResolution                       : 24 bits\nScan type                        : Progressive\nBits/(Pixel*Frame)               : 0.304\nStream size                      : 14.2 MiB (84%)\nLanguage                         : en-us\n\nAudio\nID                               : 2\nFormat                           : WMA2\nFormat profile                   : L1\nCodec ID                         : 161\nCodec ID/Info                    : Windows Media Audio 2\nDescription of the codec         : Windows Media Audio 9.2 - 128 kbps, 44 kHz, stereo 1-pass CBR\nDuration                         : 2mn 50s\nBit rate mode                    : Constant\nBit rate                         : 128 Kbps\nChannel(s)                       : 2 channels\nSampling rate                    : 44.1 KHz\nResolution                       : 16 bits\nStream size                      : 2.60 MiB (15%)\nLanguage                         : en-us\n","torrent":{"xt":"urn:btih:bf7d3f1524a731f3dedca0d08023b75ad3e5edda","amp;dn":"solo_girl_6","amp;tr":["udp%3A%2F%2Ftracker.openbittorrent.com%3A80","udp%3A%2F%2Fopen.demonii.com%3A1337","udp%3A%2F%2Ftracker.coppersurfer.tk%3A6969","udp%3A%2F%2Fexodus.desync.com%3A6969"],"infoHash":"bf7d3f1524a731f3dedca0d08023b75ad3e5edda","infoHashBuffer":{"type":"Buffer","data":[191,125,63,21,36,167,49,243,222,220,160,208,128,35,183,90,211,229,237,218]},"announce":[],"urlList":[]}}